<svg width="269" height="421" viewBox="0 0 269 421" fill="none" xmlns="http://www.w3.org/2000/svg">
<path d="M29.188 420.75H239.563C255.379 420.75 268.251 407.879 268.251 392.062V66.938C268.251 51.122 255.38 38.25 239.563 38.25H201.313V19.125C201.312 8.559 192.754 0 182.188 0H86.563C75.997 0 67.438 8.559 67.438 19.125V38.25H29.188C13.371 38.25 0.5 51.121 0.5 66.938V392.063C0.5 407.879 13.371 420.75 29.188 420.75ZM19.625 66.938C19.625 61.66 23.909 57.376 29.187 57.376H86.562H182.187H239.562C244.84 57.376 249.124 61.66 249.124 66.938V392.063C249.124 397.341 244.84 401.625 239.562 401.625H29.188C23.91 401.625 19.626 397.341 19.626 392.063V66.938H19.625Z" fill="#7C7C7C"/>
<rect x="18" y="57" width="233" height="346" fill="#C4C4C4"/>
</svg>
